<svg xmlns="http://www.w3.org/2000/svg" viewBox="0 0 36 36" id="Email">
  <g transform="translate(0 -1016.362)" fill="#000000" class="color000000 svgShape">
    <circle cx="18" cy="1034.362" r="18" fill="#767fad" class="color3a6c87 svgShape"></circle>
    <path fill="#2f396c" style="line-height:normal;text-indent:0;text-align:start;text-decoration-line:none;text-decoration-style:solid;text-decoration-color:#000;text-transform:none;block-progression:tb;isolation:auto;mix-blend-mode:normal" d="M17.781 35.988A18 18 0 0 0 18 36a18 18 0 0 0 1.273-.045 18 18 0 0 0 1.786-.217 18 18 0 0 0 1.755-.394 18 18 0 0 0 1.707-.567 18 18 0 0 0 1.643-.736 18 18 0 0 0 1.56-.895A18 18 0 0 0 29.19 32.1a18 18 0 0 0 1.352-1.188 18 18 0 0 0 1.227-1.316 18 18 0 0 0 1.087-1.432 18 18 0 0 0 .942-1.535 18 18 0 0 0 .781-1.62 18 18 0 0 0 .617-1.689 18 18 0 0 0 .446-1.744 18 18 0 0 0 .27-1.78 18 18 0 0 0 .036-.743L26.195 9.3l-.006-.006a4.445 4.445 0 0 0-.648-.535 4.425 4.425 0 0 0-.684-.373c-.023-.01-.042-.027-.066-.037l-.004-.002a4.377 4.377 0 0 0-.826-.258h-.002a4.395 4.395 0 0 0-4.033 1.238L18.28 8.1a.504.504 0 0 0-.6 0l-2.507 1.88H10.5v3.504l-1.8 1.35a.5.5 0 0 0-.182.531.496.496 0 0 0-.018.143V26.5c0 .138.056.263.146.354l9.135 9.134z" color="#000" font-family="sans-serif" font-weight="400" transform="translate(0 1016.362)" class="color2f4b6c svgShape"></path>
    <path fill="#ffffff" style="line-height:normal;text-indent:0;text-align:start;text-decoration-line:none;text-decoration-style:solid;text-decoration-color:#000;text-transform:none;block-progression:tb;isolation:auto;mix-blend-mode:normal" d="M15.957 6.5a.5.5 0 0 0-.271.1l-2.508 1.88H8.504v3.504l-1.8 1.35a.5.5 0 0 0-.183.531.5.5 0 0 0-.017.143V25a.5.5 0 0 0 .5.5h18a.5.5 0 0 0 .5-.5V14.008a.5.5 0 0 0-.041-.205.5.5 0 0 0-.193-.48l-.344-.257c.352-.635.57-1.356.57-2.132 0-2.442-1.983-4.434-4.42-4.434-1.23 0-2.344.51-3.146 1.328L16.285 6.6a.5.5 0 0 0-.328-.1Zm5.12 1c.933 0 1.776.375 2.392.98h-.008c.01.01.025.014.035.024l.008.01c.613.62.992 1.473.992 2.42a3.418 3.418 0 0 1-3.42 3.431 3.42 3.42 0 0 1-3.422-3.431A3.42 3.42 0 0 1 21.076 7.5Zm-5.089.125 1.143.855h-2.283zm5.08 1.043a.5.5 0 0 0-.492.508v1.258h-1.258c-.676-.01-.676 1.01 0 1h1.258v1.257c-.01.677 1.01.677 1 0v-1.257h1.258c.676.01.676-1.01 0-1h-1.258V9.176a.5.5 0 0 0-.508-.508zM9.504 9.48h7.414c-.11.316-.18.646-.217.989h-4.197v1.062h4.21c.047.336.122.661.24.969h-5.45v1.063h6.033c.266.357.58.673.94.937h-4.973v1.063h5v-1.04a4.378 4.378 0 0 0 2.572.842c.13 0 .252-.028.38-.039l-5.47 3.418-6.482-4.04zm-1 3.754v.846l-.615-.383zm16 1.37v9.468l-5.217-3.484c-.489-.282-1.066.537-.555.832l4.612 3.08H8.654l4.62-3.08c.512-.296.068-1.192-.555-.832l-5.215 3.478v-9.431l1.236.77 6.893 4.296.086.055.037.023h.002a.5.5 0 0 0 .451 0h.01l7.037-4.396.012-.008h.002z" color="#000" font-family="sans-serif" font-weight="400" overflow="visible" transform="translate(1.996 1017.862)" class="colorffffff svgShape"></path>
  </g>
</svg>