<svg xmlns="http://www.w3.org/2000/svg" enable-background="new 0 0 32 32" viewBox="0 0 32 32" id="menu">
  <path d="M13.14307.5H2C1.17139.5.5 1.17139.5 2v11.14307c0 .82861.67139 1.5 1.5 1.5h11.14307c.82861 0 1.5-.67139 1.5-1.5V2C14.64307 1.17139 13.97168.5 13.14307.5zM11.64307 11.64307H3.5V3.5h8.14307V11.64307zM30 .5H18.85742c-.82813 0-1.5.67139-1.5 1.5v11.14307c0 .82861.67188 1.5 1.5 1.5H30c.82813 0 1.5-.67139 1.5-1.5V2C31.5 1.17139 30.82813.5 30 .5zM28.5 11.64307h-8.14258V3.5H28.5V11.64307zM13.14307 17.35693H2c-.82861 0-1.5.67139-1.5 1.5V30c0 .82861.67139 1.5 1.5 1.5h11.14307c.82861 0 1.5-.67139 1.5-1.5V18.85693C14.64307 18.02832 13.97168 17.35693 13.14307 17.35693zM11.64307 28.5H3.5v-8.14307h8.14307V28.5zM24.42871 17.35693c-3.89941 0-7.07129 3.17236-7.07129 7.07178 0 3.89893 3.17188 7.07129 7.07129 7.07129S31.5 28.32764 31.5 24.42871C31.5 20.5293 28.32813 17.35693 24.42871 17.35693zM24.42871 28.5c-2.24512 0-4.07129-1.82617-4.07129-4.07129s1.82617-4.07178 4.07129-4.07178S28.5 22.18359 28.5 24.42871 26.67383 28.5 24.42871 28.5z" fill="#ffffff" class="color000000 svgShape"></path>
</svg>